<svg width="322" height="135" viewBox="0 0 322 135" fill="none" xmlns="http://www.w3.org/2000/svg">
<path fill-rule="evenodd" clip-rule="evenodd" d="M146.83 65.09V69.64C146.843 69.6906 146.831 69.7445 146.797 69.7844C146.763 69.8242 146.712 69.845 146.66 69.84H145.15C145.104 69.843 145.059 69.826 145.026 69.7935C144.994 69.7609 144.977 69.7159 144.98 69.67V58.2C144.977 58.1541 144.994 58.1091 145.026 58.0765C145.059 58.044 145.104 58.027 145.15 58.03H147.53C149.63 58.03 150.9 58.95 150.9 61.54C151.032 62.7257 150.487 63.885 149.49 64.54L151.16 69.65C151.182 69.6835 151.184 69.7262 151.165 69.7615C151.146 69.7968 151.11 69.8192 151.07 69.82H149.45C149.366 69.8293 149.287 69.7795 149.26 69.7L147.82 64.99H146.93C146.902 64.9867 146.875 64.9962 146.856 65.0157C146.836 65.0352 146.827 65.0626 146.83 65.09ZM146.856 59.7157C146.836 59.7352 146.827 59.7626 146.83 59.79V63.24C146.827 63.2674 146.836 63.2948 146.856 63.3143C146.875 63.3338 146.902 63.3433 146.93 63.34H147.54C148.58 63.34 149.03 62.9 149.03 61.51C149.03 60.12 148.54 59.69 147.54 59.69H146.93C146.902 59.6867 146.875 59.6962 146.856 59.7157Z" fill="#FFFFFF"/>
<path d="M158.73 95H155.67C155.643 95.0033 155.615 94.9938 155.596 94.9743C155.576 94.9548 155.567 94.9274 155.57 94.9V85C155.573 84.9541 155.556 84.9091 155.524 84.8765C155.491 84.844 155.446 84.827 155.4 84.83H153.89C153.844 84.827 153.799 84.844 153.767 84.8765C153.734 84.9091 153.717 84.9541 153.72 85V96.47C153.717 96.5159 153.734 96.5609 153.767 96.5935C153.799 96.626 153.844 96.643 153.89 96.64H158.74C158.786 96.643 158.831 96.626 158.864 96.5935C158.896 96.5609 158.913 96.5159 158.91 96.47V95.13C158.895 95.0453 158.815 94.9879 158.73 95Z" fill="#FFFFFF"/>
<path d="M170.94 86.37C171.62 86.37 171.94 86.8 172.02 87.81C172.015 87.8595 172.035 87.9083 172.073 87.9404C172.111 87.9725 172.163 87.9835 172.21 87.97L173.62 87.73C173.666 87.721 173.705 87.6927 173.728 87.6524C173.751 87.6121 173.756 87.5638 173.74 87.52C173.64 85.52 172.58 84.69 170.89 84.69C169.679 84.5732 168.555 85.3324 168.21 86.5C168.05 86.99 167.98 87.5 167.98 90.76C167.98 94.02 168.05 94.53 168.21 95.02C168.555 96.1876 169.679 96.9468 170.89 96.83C172.58 96.83 173.64 95.96 173.74 94C173.756 93.9562 173.751 93.9079 173.728 93.8676C173.705 93.8273 173.666 93.799 173.62 93.79L172.21 93.55C172.163 93.5365 172.111 93.5475 172.073 93.5796C172.035 93.6117 172.015 93.6605 172.02 93.71C171.97 94.71 171.62 95.15 170.94 95.15C170.506 95.1975 170.103 94.915 170 94.49C169.91 94.21 169.88 93.97 169.88 90.77C169.88 87.57 169.88 87.33 170 87.05C170.095 86.617 170.5 86.3242 170.94 86.37Z" fill="#FFFFFF"/>
<path d="M143.31 84.84H138.46C138.414 84.837 138.369 84.854 138.337 84.8865C138.304 84.9191 138.287 84.9641 138.29 85.01V96.48C138.287 96.5259 138.304 96.5709 138.337 96.6035C138.369 96.636 138.414 96.653 138.46 96.65H143.31C143.356 96.653 143.401 96.636 143.434 96.6035C143.466 96.5709 143.483 96.5259 143.48 96.48V95.14C143.483 95.0941 143.466 95.0491 143.434 95.0165C143.401 94.984 143.356 94.967 143.31 94.97H140.25C140.223 94.9733 140.196 94.9638 140.176 94.9443C140.157 94.9248 140.147 94.8974 140.15 94.87V91.64C140.147 91.6126 140.157 91.5852 140.176 91.5657C140.196 91.5462 140.223 91.5367 140.25 91.54H142.89C142.936 91.543 142.981 91.526 143.014 91.4935C143.046 91.4609 143.063 91.4159 143.06 91.37V90C143.063 89.9541 143.046 89.9091 143.014 89.8765C142.981 89.844 142.936 89.827 142.89 89.83H140.25C140.223 89.8333 140.196 89.8238 140.176 89.8043C140.157 89.7848 140.147 89.7574 140.15 89.73V86.62C140.147 86.5926 140.157 86.5652 140.176 86.5457C140.196 86.5262 140.223 86.5167 140.25 86.52H143.31C143.356 86.523 143.401 86.506 143.434 86.4735C143.466 86.4409 143.483 86.3959 143.48 86.35V85C143.48 84.9558 143.462 84.9135 143.43 84.8832C143.398 84.8529 143.355 84.8372 143.31 84.84Z" fill="#FFFFFF"/>
<path d="M151.26 90.07H148.62C148.574 90.067 148.529 90.084 148.497 90.1165C148.464 90.1491 148.447 90.1941 148.45 90.24V91.53C148.447 91.5759 148.464 91.6209 148.497 91.6535C148.529 91.686 148.574 91.703 148.62 91.7H149.54C149.568 91.6967 149.595 91.7062 149.614 91.7257C149.634 91.7452 149.643 91.7726 149.64 91.8C149.721 92.688 149.681 93.5829 149.52 94.46C149.323 94.8603 148.916 95.1139 148.47 95.1139C148.024 95.1139 147.617 94.8603 147.42 94.46C147.32 94.13 147.3 93.99 147.3 90.74C147.3 87.49 147.3 87.35 147.42 87.02C147.57 86.6026 147.977 86.3338 148.42 86.36C148.767 86.3711 149.094 86.5286 149.318 86.7933C149.543 87.0581 149.645 87.4056 149.6 87.75C149.602 87.796 149.624 87.8389 149.661 87.8662C149.698 87.8935 149.746 87.9023 149.79 87.89L151.2 87.65C151.296 87.6299 151.359 87.5365 151.34 87.44C151.357 86.6709 151.046 85.9309 150.486 85.4044C149.925 84.8779 149.167 84.6145 148.4 84.68C147.151 84.5624 145.988 85.3269 145.6 86.52C145.43 87.04 145.37 87.46 145.37 90.74C145.37 94.02 145.42 94.44 145.6 94.96C146.053 96.105 147.159 96.8573 148.39 96.8573C149.621 96.8573 150.728 96.105 151.18 94.96C151.35 94.44 151.41 94.02 151.41 90.75V90.23C151.41 90.1454 151.345 90.0753 151.26 90.07Z" fill="#FFFFFF"/>
<path fill-rule="evenodd" clip-rule="evenodd" d="M146.44 38.52V42.79C146.444 42.8379 146.426 42.8847 146.391 42.9176C146.356 42.9506 146.308 42.9661 146.26 42.96H144.75C144.704 42.963 144.659 42.946 144.627 42.9135C144.594 42.8809 144.577 42.8359 144.58 42.79V31.33C144.577 31.2841 144.594 31.2391 144.627 31.2065C144.659 31.174 144.704 31.157 144.75 31.16H147.13C149.23 31.16 150.48 32.16 150.48 34.79C150.48 37.42 149.23 38.42 147.13 38.42H146.54C146.513 38.4167 146.486 38.4262 146.466 38.4457C146.447 38.4652 146.437 38.4926 146.44 38.52ZM146.466 32.8657C146.447 32.8852 146.437 32.9126 146.44 32.94V36.64C146.437 36.6674 146.447 36.6948 146.466 36.7143C146.486 36.7338 146.513 36.7433 146.54 36.74H147.13C148.19 36.74 148.62 36.29 148.62 34.79C148.62 33.29 148.19 32.84 147.13 32.84H146.54C146.513 32.8367 146.486 32.8462 146.466 32.8657Z" fill="#FFFFFF"/>
<path d="M165.9 84.84H161C160.954 84.837 160.909 84.854 160.877 84.8865C160.844 84.9191 160.827 84.9641 160.83 85.01V96.48C160.827 96.5259 160.844 96.5709 160.877 96.6035C160.909 96.636 160.954 96.653 161 96.65H165.85C165.896 96.653 165.941 96.636 165.974 96.6035C166.006 96.5709 166.023 96.5259 166.02 96.48V95.14C166.023 95.0941 166.006 95.0491 165.974 95.0165C165.941 94.984 165.896 94.967 165.85 94.97H162.79C162.763 94.9733 162.736 94.9638 162.716 94.9443C162.697 94.9248 162.687 94.8974 162.69 94.87V91.64C162.687 91.6126 162.697 91.5852 162.716 91.5657C162.736 91.5462 162.763 91.5367 162.79 91.54H165.43C165.476 91.543 165.521 91.526 165.554 91.4935C165.586 91.4609 165.603 91.4159 165.6 91.37V90C165.603 89.9541 165.586 89.9091 165.554 89.8765C165.521 89.844 165.476 89.827 165.43 89.83H162.79C162.763 89.8333 162.736 89.8238 162.716 89.8043C162.697 89.7848 162.687 89.7574 162.69 89.73V86.62C162.687 86.5926 162.697 86.5652 162.716 86.5457C162.736 86.5262 162.763 86.5167 162.79 86.52H165.85C165.896 86.523 165.941 86.506 165.974 86.4735C166.006 86.4409 166.023 86.3959 166.02 86.35V85C166.023 84.9252 165.973 84.8587 165.9 84.84Z" fill="#FFFFFF"/>
<path d="M282.08 43H286.93C286.976 43.003 287.021 42.986 287.053 42.9535C287.086 42.9209 287.103 42.8759 287.1 42.83V41.46C287.103 41.4141 287.086 41.3691 287.053 41.3365C287.021 41.304 286.976 41.287 286.93 41.29H283.87C283.842 41.2933 283.815 41.2838 283.795 41.2643C283.776 41.2448 283.766 41.2174 283.77 41.19V37.95C283.766 37.9226 283.776 37.8952 283.795 37.8757C283.815 37.8562 283.842 37.8467 283.87 37.85H286.51C286.556 37.853 286.601 37.836 286.633 37.8035C286.666 37.7709 286.683 37.7259 286.68 37.68V36.33C286.683 36.2841 286.666 36.2391 286.633 36.2065C286.601 36.174 286.556 36.157 286.51 36.16H283.87C283.842 36.1633 283.815 36.1538 283.795 36.1343C283.776 36.1148 283.766 36.0874 283.77 36.06V32.94C283.766 32.9126 283.776 32.8852 283.795 32.8657C283.815 32.8462 283.842 32.8367 283.87 32.84H286.93C286.976 32.843 287.021 32.826 287.053 32.7935C287.086 32.7609 287.103 32.7159 287.1 32.67V31.32C287.103 31.2741 287.086 31.2291 287.053 31.1965C287.021 31.164 286.976 31.147 286.93 31.15H282.08C282.034 31.147 281.989 31.164 281.956 31.1965C281.924 31.2291 281.907 31.2741 281.91 31.32V42.79C281.892 42.8419 281.903 42.8992 281.937 42.9417C281.971 42.9843 282.025 43.0063 282.08 43Z" fill="#FFFFFF"/>
<path d="M177.09 43H181.94C181.986 43.003 182.031 42.986 182.064 42.9535C182.096 42.9209 182.113 42.8759 182.11 42.83V41.46C182.113 41.4141 182.096 41.3691 182.064 41.3365C182.031 41.304 181.986 41.287 181.94 41.29H178.88C178.853 41.2933 178.826 41.2838 178.806 41.2643C178.787 41.2448 178.777 41.2174 178.78 41.19V37.95C178.777 37.9226 178.787 37.8952 178.806 37.8757C178.826 37.8562 178.853 37.8467 178.88 37.85H181.52C181.566 37.853 181.611 37.836 181.644 37.8035C181.676 37.7709 181.693 37.7259 181.69 37.68V36.33C181.693 36.2841 181.676 36.2391 181.644 36.2065C181.611 36.174 181.566 36.157 181.52 36.16H178.88C178.853 36.1633 178.826 36.1538 178.806 36.1343C178.787 36.1148 178.777 36.0874 178.78 36.06V32.94C178.777 32.9126 178.787 32.8852 178.806 32.8657C178.826 32.8462 178.853 32.8367 178.88 32.84H181.94C181.986 32.843 182.031 32.826 182.064 32.7935C182.096 32.7609 182.113 32.7159 182.11 32.67V31.32C182.113 31.2741 182.096 31.2291 182.064 31.1965C182.031 31.164 181.986 31.147 181.94 31.15H177.09C177.045 31.147 177 31.164 176.967 31.1965C176.934 31.2291 176.918 31.2741 176.92 31.32V42.79C176.903 42.8419 176.913 42.8992 176.948 42.9417C176.982 42.9843 177.036 43.0063 177.09 43Z" fill="#FFFFFF"/>
<path d="M199.28 43.12C201.52 43.12 202.28 41.9 202.28 39.57C202.28 37.57 201.67 36.72 200.12 36.11L199.41 35.83C199.018 35.7487 198.676 35.5132 198.459 35.1765C198.243 34.8398 198.171 34.4302 198.26 34.04C198.26 33.04 198.61 32.62 199.34 32.62C200.07 32.62 200.42 33.16 200.45 34.13C200.452 34.176 200.474 34.2189 200.511 34.2462C200.548 34.2735 200.596 34.2823 200.64 34.27L202.03 34.06C202.123 34.0451 202.191 33.9643 202.19 33.87C202.09 32.03 201.19 30.99 199.29 30.99C197.39 30.99 196.42 32.1 196.42 34.14C196.42 35.98 196.91 36.83 198.54 37.48L199.25 37.76C200.17 38.12 200.41 38.54 200.41 39.81C200.41 41.08 200.05 41.5 199.3 41.5C198.55 41.5 198.14 41.01 198.08 39.76C198.085 39.7105 198.066 39.6617 198.028 39.6296C197.989 39.5975 197.938 39.5865 197.89 39.6L196.43 39.84C196.385 39.8448 196.345 39.8681 196.318 39.9042C196.292 39.9403 196.281 39.986 196.29 40.03C196.37 42.1 197.36 43.12 199.28 43.12Z" fill="#FFFFFF"/>
<path d="M212.68 43H217.53C217.576 43.003 217.621 42.986 217.654 42.9535C217.686 42.9209 217.703 42.8759 217.7 42.83V41.46C217.703 41.4141 217.686 41.3691 217.654 41.3365C217.621 41.304 217.576 41.287 217.53 41.29H214.47C214.443 41.2933 214.416 41.2838 214.396 41.2643C214.377 41.2448 214.367 41.2174 214.37 41.19V37.95C214.367 37.9226 214.377 37.8952 214.396 37.8757C214.416 37.8562 214.443 37.8467 214.47 37.85H217.11C217.156 37.853 217.201 37.836 217.234 37.8035C217.266 37.7709 217.283 37.7259 217.28 37.68V36.33C217.283 36.2841 217.266 36.2391 217.234 36.2065C217.201 36.174 217.156 36.157 217.11 36.16H214.47C214.443 36.1633 214.416 36.1538 214.396 36.1343C214.377 36.1148 214.367 36.0874 214.37 36.06V32.94C214.367 32.9126 214.377 32.8852 214.396 32.8657C214.416 32.8462 214.443 32.8367 214.47 32.84H217.53C217.576 32.843 217.621 32.826 217.654 32.7935C217.686 32.7609 217.703 32.7159 217.7 32.67V31.32C217.703 31.2741 217.686 31.2291 217.654 31.1965C217.621 31.164 217.576 31.147 217.53 31.15H212.68C212.634 31.147 212.589 31.164 212.557 31.1965C212.524 31.2291 212.507 31.2741 212.51 31.32V42.79C212.493 42.8419 212.503 42.8992 212.538 42.9417C212.572 42.9843 212.626 43.0063 212.68 43Z" fill="#FFFFFF"/>
<path fill-rule="evenodd" clip-rule="evenodd" d="M206.11 43H204.6C204.546 43.0063 204.492 42.9843 204.458 42.9417C204.423 42.8992 204.413 42.8419 204.43 42.79V31.33C204.427 31.2841 204.444 31.2391 204.477 31.2065C204.509 31.174 204.554 31.157 204.6 31.16H207C209.1 31.16 210.35 32.16 210.35 34.79C210.35 37.42 209.1 38.42 207 38.42H206.38C206.353 38.4167 206.325 38.4262 206.306 38.4457C206.286 38.4652 206.277 38.4926 206.28 38.52V42.83C206.283 42.8759 206.266 42.9209 206.234 42.9535C206.201 42.986 206.156 43.003 206.11 43ZM206.316 32.9257C206.296 32.9452 206.287 32.9726 206.29 33L206.31 32.94V36.63C206.307 36.6574 206.316 36.6848 206.336 36.7043C206.355 36.7238 206.383 36.7333 206.41 36.73H207C208 36.73 208.49 36.35 208.49 34.85C208.49 33.35 208.06 32.9 207 32.9H206.39C206.363 32.8967 206.335 32.9062 206.316 32.9257Z" fill="#FFFFFF"/>
<path fill-rule="evenodd" clip-rule="evenodd" d="M142.64 63.91C142.64 67.19 142.58 67.61 142.41 68.13C141.957 69.275 140.851 70.0273 139.62 70.0273C138.388 70.0273 137.282 69.275 136.83 68.13C136.65 67.61 136.6 67.19 136.6 63.91C136.6 60.63 136.66 60.21 136.83 59.69C137.282 58.545 138.388 57.7927 139.62 57.7927C140.851 57.7927 141.957 58.545 142.41 59.69C142.59 60.21 142.64 60.63 142.64 63.91ZM138.5 63.91C138.5 67.16 138.52 67.3 138.62 67.63V67.62C138.79 68.0193 139.182 68.2791 139.616 68.2813C140.051 68.2835 140.445 68.0276 140.62 67.63C140.74 67.3 140.74 67.16 140.74 63.91C140.74 60.66 140.72 60.52 140.62 60.19C140.447 59.7915 140.054 59.5337 139.62 59.5337C139.185 59.5337 138.792 59.7915 138.62 60.19C138.5 60.52 138.5 60.66 138.5 63.91Z" fill="#FFFFFF"/>
<rect x="227.25" y="31.15" width="1.86" height="11.82" rx="0.17" fill="#FFFFFF"/>
<path d="M239.83 43H244.68C244.726 43.003 244.771 42.986 244.804 42.9535C244.836 42.9209 244.853 42.8759 244.85 42.83V41.46C244.853 41.4141 244.836 41.3691 244.804 41.3365C244.771 41.304 244.726 41.287 244.68 41.29H241.62C241.593 41.2933 241.565 41.2838 241.546 41.2643C241.526 41.2448 241.517 41.2174 241.52 41.19V31.32C241.523 31.2741 241.506 31.2291 241.474 31.1965C241.441 31.164 241.396 31.147 241.35 31.15H239.84C239.794 31.147 239.749 31.164 239.717 31.1965C239.684 31.2291 239.667 31.2741 239.67 31.32V42.79C239.654 42.8401 239.663 42.8952 239.695 42.9372C239.727 42.9792 239.777 43.0027 239.83 43Z" fill="#FFFFFF"/>
<rect x="171.79" y="57.99" width="1.86" height="11.82" rx="0.17" fill="#FFFFFF"/>
<path d="M129.76 69.81H131.27C131.316 69.813 131.361 69.796 131.394 69.7635C131.426 69.7309 131.443 69.6859 131.44 69.64V64.88C131.437 64.8526 131.447 64.8252 131.466 64.8057C131.486 64.7862 131.513 64.7767 131.54 64.78H134.18C134.226 64.783 134.271 64.766 134.304 64.7335C134.336 64.7009 134.353 64.6559 134.35 64.61V63.27C134.353 63.2241 134.336 63.1791 134.304 63.1465C134.271 63.114 134.226 63.097 134.18 63.1H131.54C131.513 63.1033 131.486 63.0938 131.466 63.0743C131.447 63.0548 131.437 63.0274 131.44 63V59.8C131.437 59.7726 131.447 59.7452 131.466 59.7257C131.486 59.7062 131.513 59.6967 131.54 59.7H134.6C134.646 59.703 134.691 59.686 134.724 59.6535C134.756 59.6209 134.773 59.5759 134.77 59.53V58.17C134.773 58.1241 134.756 58.0791 134.724 58.0465C134.691 58.014 134.646 57.997 134.6 58H129.75C129.705 57.997 129.66 58.014 129.627 58.0465C129.594 58.0791 129.578 58.1241 129.58 58.17V69.64C129.577 69.6878 129.595 69.7347 129.63 69.7676C129.665 69.8006 129.713 69.8161 129.76 69.81Z" fill="#FFFFFF"/>
<path d="M135.58 84.84H134.29C134.244 84.837 134.199 84.854 134.167 84.8865C134.134 84.9191 134.117 84.9641 134.12 85.01V93.18H134L131.84 85C131.815 84.8903 131.712 84.817 131.6 84.83H129.76C129.714 84.827 129.669 84.844 129.637 84.8765C129.604 84.9091 129.587 84.9541 129.59 85V96.47C129.587 96.5159 129.604 96.5609 129.637 96.5935C129.669 96.626 129.714 96.643 129.76 96.64H131C131.046 96.643 131.091 96.626 131.124 96.5935C131.156 96.5609 131.173 96.5159 131.17 96.47V88.3H131.27L133.56 96.47C133.585 96.5797 133.688 96.653 133.8 96.64H135.52C135.566 96.643 135.611 96.626 135.644 96.5935C135.676 96.5609 135.693 96.5159 135.69 96.47V85C135.694 84.928 135.649 84.8625 135.58 84.84Z" fill="#FFFFFF"/>
<path d="M138.08 42.79L139.46 39L140.83 42.75C140.845 42.8449 140.924 42.9163 141.02 42.92H142.55C142.595 42.9257 142.639 42.9082 142.667 42.8737C142.696 42.8392 142.704 42.7924 142.69 42.75L140.36 36.75L142.48 31.28C142.494 31.2376 142.486 31.1908 142.457 31.1563C142.429 31.1218 142.385 31.1043 142.34 31.11H140.81C140.714 31.1137 140.635 31.1851 140.62 31.28L139.46 34.63L138.3 31.28C138.286 31.1851 138.206 31.1137 138.11 31.11H136.58C136.536 31.1043 136.492 31.1218 136.463 31.1563C136.435 31.1908 136.426 31.2376 136.44 31.28L138.54 36.75L136.23 42.75C136.216 42.7924 136.225 42.8392 136.253 42.8737C136.282 42.9082 136.326 42.9257 136.37 42.92H137.9C137.981 42.917 138.052 42.8657 138.08 42.79Z" fill="#FFFFFF"/>
<path d="M159.27 59.68H162.33C162.376 59.683 162.421 59.666 162.453 59.6335C162.486 59.6009 162.503 59.5559 162.5 59.51V58.17C162.503 58.1241 162.486 58.0791 162.453 58.0465C162.421 58.014 162.376 57.997 162.33 58H157.48C157.434 57.997 157.389 58.014 157.356 58.0465C157.324 58.0791 157.307 58.1241 157.31 58.17V69.64C157.307 69.6859 157.324 69.7309 157.356 69.7635C157.389 69.796 157.434 69.813 157.48 69.81H162.33C162.376 69.813 162.421 69.796 162.453 69.7635C162.486 69.7309 162.503 69.6859 162.5 69.64V68.3C162.503 68.2541 162.486 68.2091 162.453 68.1765C162.421 68.144 162.376 68.127 162.33 68.13H159.27C159.243 68.1333 159.215 68.1238 159.196 68.1043C159.176 68.0848 159.167 68.0574 159.17 68.03V64.8C159.167 64.7726 159.176 64.7452 159.196 64.7257C159.215 64.7062 159.243 64.6967 159.27 64.7H161.91C161.956 64.703 162.001 64.686 162.033 64.6535C162.066 64.6209 162.083 64.5759 162.08 64.53V63.19C162.083 63.1441 162.066 63.0991 162.033 63.0665C162.001 63.034 161.956 63.017 161.91 63.02H159.27C159.243 63.0233 159.215 63.0138 159.196 62.9943C159.176 62.9748 159.167 62.9474 159.17 62.92V59.78C159.167 59.7526 159.176 59.7252 159.196 59.7057C159.215 59.6862 159.243 59.6767 159.27 59.68Z" fill="#FFFFFF"/>
<path d="M129.76 43H134.61C134.656 43.003 134.701 42.986 134.734 42.9535C134.766 42.9209 134.783 42.8759 134.78 42.83V41.46C134.783 41.4141 134.766 41.3691 134.734 41.3365C134.701 41.304 134.656 41.287 134.61 41.29H131.55C131.523 41.2933 131.496 41.2838 131.476 41.2643C131.457 41.2448 131.447 41.2174 131.45 41.19V37.95C131.447 37.9226 131.457 37.8952 131.476 37.8757C131.496 37.8562 131.523 37.8467 131.55 37.85H134.19C134.236 37.853 134.281 37.836 134.314 37.8035C134.346 37.7709 134.363 37.7259 134.36 37.68V36.33C134.363 36.2841 134.346 36.2391 134.314 36.2065C134.281 36.174 134.236 36.157 134.19 36.16H131.55C131.523 36.1633 131.496 36.1538 131.476 36.1343C131.457 36.1148 131.447 36.0874 131.45 36.06V32.94C131.447 32.9126 131.457 32.8852 131.476 32.8657C131.496 32.8462 131.523 32.8367 131.55 32.84H134.61C134.656 32.843 134.701 32.826 134.734 32.7935C134.766 32.7609 134.783 32.7159 134.78 32.67V31.32C134.783 31.2741 134.766 31.2291 134.734 31.1965C134.701 31.164 134.656 31.147 134.61 31.15H129.76C129.714 31.147 129.669 31.164 129.637 31.1965C129.604 31.2291 129.587 31.2741 129.59 31.32V42.79C129.573 42.8419 129.583 42.8992 129.618 42.9417C129.652 42.9843 129.706 43.0063 129.76 43Z" fill="#FFFFFF"/>
<path d="M160 43H161.29C161.336 43.003 161.381 42.986 161.413 42.9535C161.446 42.9209 161.463 42.8759 161.46 42.83V34.63H161.56L163.85 42.8C163.874 42.9097 163.978 42.983 164.09 42.97H165.81C165.856 42.973 165.901 42.956 165.933 42.9235C165.966 42.8909 165.983 42.8459 165.98 42.8V31.32C165.983 31.2741 165.966 31.2291 165.933 31.1965C165.901 31.164 165.856 31.147 165.81 31.15H164.52C164.474 31.147 164.429 31.164 164.396 31.1965C164.364 31.2291 164.347 31.2741 164.35 31.32V39.49H164.26L162.07 31.32C162.045 31.2103 161.941 31.137 161.83 31.15H160C159.954 31.147 159.909 31.164 159.876 31.1965C159.844 31.2291 159.827 31.2741 159.83 31.32V42.79C159.812 42.8419 159.822 42.8992 159.857 42.9417C159.891 42.9843 159.945 43.0063 160 43Z" fill="#FFFFFF"/>
<path d="M164.63 58.17V69.64C164.627 69.6859 164.644 69.7309 164.677 69.7635C164.709 69.796 164.754 69.813 164.8 69.81H169.65C169.696 69.813 169.741 69.796 169.774 69.7635C169.806 69.7309 169.823 69.6859 169.82 69.64V68.3C169.823 68.2541 169.806 68.2091 169.774 68.1765C169.741 68.144 169.696 68.127 169.65 68.13H166.59C166.563 68.1333 166.535 68.1238 166.516 68.1043C166.496 68.0848 166.487 68.0574 166.49 68.03V58.17C166.493 58.1241 166.476 58.0791 166.444 58.0465C166.411 58.014 166.366 57.997 166.32 58H164.8C164.754 57.997 164.709 58.014 164.677 58.0465C164.644 58.0791 164.627 58.1241 164.63 58.17Z" fill="#FFFFFF"/>
<path fill-rule="evenodd" clip-rule="evenodd" d="M156.24 42.9144C156.204 42.8825 156.183 42.8378 156.18 42.79L155.73 40.41H153.38L152.91 42.79C152.908 42.8378 152.886 42.8825 152.851 42.9144C152.815 42.9463 152.768 42.9627 152.72 42.96H151.24C151.196 42.9657 151.152 42.9482 151.123 42.9137C151.095 42.8792 151.086 42.8324 151.1 42.79L153.65 31.32C153.665 31.2251 153.744 31.1537 153.84 31.15H155.3C155.398 31.1495 155.48 31.2229 155.49 31.32L157.99 42.79C158.005 42.8324 157.996 42.8792 157.967 42.9137C157.939 42.9482 157.895 42.9657 157.85 42.96H156.37C156.323 42.9627 156.276 42.9463 156.24 42.9144ZM154.53 34.44L153.66 38.84H155.41L154.58 34.44H154.53Z" fill="#FFFFFF"/>
<path fill-rule="evenodd" clip-rule="evenodd" d="M263.49 37.68L265.16 42.79C265.188 42.8236 265.193 42.8704 265.173 42.9093C265.154 42.9483 265.113 42.9721 265.07 42.97H263.45C263.366 42.9793 263.287 42.9295 263.26 42.85L261.82 38.14H260.93C260.902 38.1367 260.875 38.1462 260.856 38.1657C260.836 38.1852 260.827 38.2126 260.83 38.24V42.79C260.833 42.8359 260.816 42.8809 260.783 42.9135C260.751 42.946 260.706 42.963 260.66 42.96H259.15C259.104 42.963 259.059 42.946 259.026 42.9135C258.994 42.8809 258.977 42.8359 258.98 42.79V31.34C258.977 31.2941 258.994 31.2491 259.026 31.2165C259.059 31.184 259.104 31.167 259.15 31.17H261.53C263.63 31.17 264.9 32.09 264.9 34.68C265.032 35.8656 264.487 37.025 263.49 37.68ZM260.93 36.48H261.54L261.55 36.49C262.59 36.49 263.03 36.05 263.03 34.66C263.03 33.27 262.54 32.84 261.54 32.84H260.93C260.902 32.8367 260.875 32.8462 260.856 32.8657C260.836 32.8852 260.827 32.9126 260.83 32.94V36.38C260.827 36.4074 260.836 36.4348 260.856 36.4543C260.875 36.4738 260.902 36.4833 260.93 36.48Z" fill="#FFFFFF"/>
<path fill-rule="evenodd" clip-rule="evenodd" d="M265.09 84.84H267.82C269.12 84.6833 270.339 85.499 270.69 86.76C270.988 88.0711 271.089 89.4192 270.99 90.76C271.089 92.1008 270.988 93.4489 270.69 94.76C270.327 96.009 269.111 96.8097 267.82 96.65H265.09C265.044 96.653 264.999 96.636 264.967 96.6035C264.934 96.5709 264.917 96.5259 264.92 96.48V85.01C264.917 84.9641 264.934 84.9191 264.967 84.8865C264.999 84.854 265.044 84.837 265.09 84.84ZM267.63 94.97C268.199 95.03 268.727 94.6706 268.88 94.12C269.107 93.0119 269.178 91.8776 269.09 90.75C269.178 89.6224 269.107 88.4881 268.88 87.38C268.727 86.8294 268.199 86.47 267.63 86.53H266.88C266.853 86.5267 266.825 86.5362 266.806 86.5557C266.786 86.5752 266.777 86.6026 266.78 86.63V94.87C266.777 94.8974 266.786 94.9248 266.806 94.9443C266.825 94.9638 266.853 94.9733 266.88 94.97H267.63Z" fill="#FFFFFF"/>
<path d="M258.71 95H255.65C255.622 95.0033 255.595 94.9938 255.575 94.9743C255.556 94.9548 255.546 94.9274 255.55 94.9V85C255.553 84.9541 255.536 84.9091 255.503 84.8765C255.47 84.844 255.425 84.827 255.38 84.83H253.87C253.824 84.827 253.779 84.844 253.746 84.8765C253.714 84.9091 253.697 84.9541 253.7 85V96.47C253.697 96.5159 253.714 96.5609 253.746 96.5935C253.779 96.626 253.824 96.643 253.87 96.64H258.72C258.765 96.643 258.81 96.626 258.843 96.5935C258.876 96.5609 258.893 96.5159 258.89 96.47V95.13C258.874 95.0453 258.795 94.9879 258.71 95Z" fill="#FFFFFF"/>
<rect x="273.32" y="84.84" width="1.86" height="11.82" rx="0.17" fill="#FFFFFF"/>
<path fill-rule="evenodd" clip-rule="evenodd" d="M267.27 32.84C267.658 31.6469 268.821 30.8824 270.07 31C271.313 30.8884 272.467 31.6524 272.85 32.84C273.03 33.36 273.08 33.78 273.08 37.06C273.08 40.34 273.02 40.76 272.85 41.28C272.397 42.425 271.291 43.1773 270.06 43.1773C268.829 43.1773 267.723 42.425 267.27 41.28C267.09 40.76 267.04 40.34 267.04 37.06C267.04 33.78 267.1 33.36 267.27 32.84ZM270.07 41.4363C270.504 41.4363 270.897 41.1785 271.07 40.78H271.06C271.16 40.45 271.19 40.31 271.19 37.06C271.19 33.81 271.17 33.67 271.07 33.34C270.897 32.9415 270.504 32.6837 270.07 32.6837C269.636 32.6837 269.243 32.9415 269.07 33.34C268.95 33.67 268.95 33.81 268.95 37.06C268.95 40.31 268.97 40.45 269.07 40.78C269.243 41.1785 269.636 41.4363 270.07 41.4363Z" fill="#FFFFFF"/>
<path fill-rule="evenodd" clip-rule="evenodd" d="M245.08 59.68C245.26 60.2 245.31 60.62 245.31 63.9C245.31 67.19 245.26 67.61 245.08 68.12C244.627 69.265 243.521 70.0173 242.29 70.0173C241.058 70.0173 239.952 69.265 239.5 68.12C239.32 67.6 239.27 67.18 239.27 63.9C239.27 60.62 239.33 60.2 239.5 59.68C239.952 58.535 241.058 57.7827 242.29 57.7827C243.521 57.7827 244.627 58.535 245.08 59.68ZM242.31 68.2763C242.744 68.2763 243.137 68.0185 243.31 67.62H243.29C243.4 67.29 243.43 67.15 243.43 63.9C243.43 60.65 243.41 60.51 243.31 60.18C243.137 59.7815 242.744 59.5237 242.31 59.5237C241.875 59.5237 241.482 59.7815 241.31 60.18C241.19 60.51 241.19 60.65 241.19 63.9C241.19 67.15 241.21 67.29 241.31 67.62C241.482 68.0185 241.875 68.2763 242.31 68.2763Z" fill="#FFFFFF"/>
<path fill-rule="evenodd" clip-rule="evenodd" d="M247.71 84.84H249.17C249.264 84.8388 249.345 84.9069 249.36 85L251.91 96.48C251.924 96.5224 251.915 96.5692 251.887 96.6037C251.858 96.6382 251.814 96.6557 251.77 96.65H250.29C250.242 96.6527 250.195 96.6363 250.16 96.6044C250.124 96.5725 250.102 96.5278 250.1 96.48L249.63 94.1H247.28L246.81 96.48C246.807 96.5278 246.786 96.5725 246.75 96.6044C246.714 96.6363 246.668 96.6527 246.62 96.65H245.14C245.095 96.6557 245.051 96.6382 245.023 96.6037C244.994 96.5692 244.986 96.5224 245 96.48L247.52 85.01C247.534 84.9151 247.614 84.8437 247.71 84.84ZM248.41 88.14L247.54 92.54H249.29L248.46 88.14H248.41Z" fill="#FFFFFF"/>
<path d="M252.66 58H247.81C247.764 57.997 247.719 58.014 247.687 58.0465C247.654 58.0791 247.637 58.1241 247.64 58.17V69.64C247.637 69.6859 247.654 69.7309 247.687 69.7635C247.719 69.796 247.764 69.813 247.81 69.81H249.32C249.366 69.813 249.411 69.796 249.443 69.7635C249.476 69.7309 249.493 69.6859 249.49 69.64V64.88C249.487 64.8526 249.496 64.8252 249.516 64.8057C249.535 64.7862 249.563 64.7767 249.59 64.78H252.23C252.276 64.783 252.321 64.766 252.353 64.7335C252.386 64.7009 252.403 64.6559 252.4 64.61V63.27C252.403 63.2241 252.386 63.1791 252.353 63.1465C252.321 63.114 252.276 63.097 252.23 63.1H249.6C249.573 63.1033 249.545 63.0938 249.526 63.0743C249.506 63.0548 249.497 63.0274 249.5 63V59.8C249.497 59.7726 249.506 59.7452 249.526 59.7257C249.545 59.7062 249.573 59.6967 249.6 59.7H252.66C252.706 59.703 252.751 59.686 252.783 59.6535C252.816 59.6209 252.833 59.5759 252.83 59.53V58.17C252.833 58.1241 252.816 58.0791 252.783 58.0465C252.751 58.014 252.706 57.997 252.66 58Z" fill="#FFFFFF"/>
<path fill-rule="evenodd" clip-rule="evenodd" d="M253.45 31.15C255.55 31.15 256.8 32.09 256.8 34.78C256.8 37.41 255.55 38.41 253.44 38.42H252.85C252.822 38.4167 252.795 38.4262 252.775 38.4457C252.756 38.4652 252.746 38.4926 252.75 38.52V42.79C252.753 42.8359 252.736 42.8809 252.703 42.9135C252.671 42.946 252.626 42.963 252.58 42.96H251.07C251.024 42.963 250.979 42.946 250.946 42.9135C250.914 42.8809 250.897 42.8359 250.9 42.79V31.32C250.897 31.2741 250.914 31.2291 250.946 31.1965C250.979 31.164 251.024 31.147 251.07 31.15H253.45ZM252.86 36.73H253.45C254.51 36.73 254.94 36.29 254.94 34.79C254.94 33.29 254.51 32.84 253.45 32.84H252.86C252.832 32.8367 252.805 32.8462 252.785 32.8657C252.766 32.8852 252.756 32.9126 252.76 32.94V36.63C252.756 36.6574 252.766 36.6848 252.785 36.7043C252.805 36.7238 252.832 36.7333 252.86 36.73Z" fill="#FFFFFF"/>
<path fill-rule="evenodd" clip-rule="evenodd" d="M294.79 84.84H296.25C296.344 84.8388 296.425 84.9069 296.44 85L298.91 96.48C298.924 96.5224 298.915 96.5692 298.887 96.6037C298.858 96.6382 298.814 96.6557 298.77 96.65H297.29C297.242 96.6527 297.195 96.6363 297.16 96.6044C297.124 96.5725 297.102 96.5278 297.1 96.48L296.63 94.1H294.28L293.81 96.48C293.807 96.5278 293.786 96.5725 293.75 96.6044C293.714 96.6363 293.668 96.6527 293.62 96.65H292.14C292.095 96.6557 292.051 96.6382 292.023 96.6037C291.994 96.5692 291.986 96.5224 292 96.48L294.6 85.01C294.614 84.9151 294.694 84.8437 294.79 84.84ZM295.49 88.14L294.62 92.54H296.37L295.54 88.14H295.49Z" fill="#FFFFFF"/>
<path d="M304.16 89.81L303.45 89.53C303.058 89.4487 302.716 89.2132 302.499 88.8765C302.283 88.5398 302.211 88.1302 302.3 87.74C302.3 86.74 302.65 86.32 303.38 86.32C304.11 86.32 304.46 86.86 304.49 87.83C304.492 87.876 304.514 87.9189 304.551 87.9462C304.588 87.9735 304.636 87.9823 304.68 87.97L306.07 87.76C306.163 87.7451 306.231 87.6643 306.23 87.57C306.13 85.73 305.23 84.69 303.33 84.69C301.43 84.69 300.46 85.8 300.46 87.84C300.46 89.68 300.95 90.53 302.58 91.18L303.29 91.46C304.21 91.82 304.45 92.24 304.45 93.51C304.45 94.78 304.09 95.2 303.34 95.2C302.59 95.2 302.18 94.71 302.12 93.46C302.125 93.4105 302.106 93.3617 302.068 93.3296C302.03 93.2975 301.978 93.2865 301.93 93.3L300.47 93.54C300.426 93.5448 300.385 93.5681 300.358 93.6042C300.332 93.6403 300.321 93.686 300.33 93.73C300.38 95.8 301.33 96.82 303.33 96.82C305.57 96.82 306.33 95.6 306.33 93.27C306.31 91.25 305.7 90.42 304.16 89.81Z" fill="#FFFFFF"/>
<path d="M301.79 32.66V31.32C301.793 31.2741 301.776 31.2291 301.743 31.1965C301.711 31.164 301.666 31.147 301.62 31.15H295.94C295.894 31.147 295.849 31.164 295.816 31.1965C295.784 31.2291 295.767 31.2741 295.77 31.32V32.66C295.767 32.7059 295.784 32.7509 295.816 32.7835C295.849 32.816 295.894 32.833 295.94 32.83H297.75C297.777 32.8267 297.805 32.8362 297.824 32.8557C297.844 32.8752 297.853 32.9026 297.85 32.93V42.78C297.83 42.8296 297.836 42.8859 297.866 42.9301C297.896 42.9743 297.946 43.0006 298 43H299.51C299.556 43.003 299.601 42.986 299.633 42.9535C299.666 42.9209 299.683 42.8759 299.68 42.83V32.94C299.677 32.9126 299.686 32.8852 299.706 32.8657C299.725 32.8462 299.752 32.8367 299.78 32.84H301.59C301.642 32.8543 301.699 32.841 301.739 32.8046C301.779 32.7682 301.799 32.7137 301.79 32.66Z" fill="#FFFFFF"/>
<path d="M313.46 84.84H308.61C308.564 84.837 308.519 84.854 308.486 84.8865C308.454 84.9191 308.437 84.9641 308.44 85.01V96.48C308.437 96.5259 308.454 96.5709 308.486 96.6035C308.519 96.636 308.564 96.653 308.61 96.65H313.46C313.506 96.653 313.551 96.636 313.583 96.6035C313.616 96.5709 313.633 96.5259 313.63 96.48V95.14C313.633 95.0941 313.616 95.0491 313.583 95.0165C313.551 94.984 313.506 94.967 313.46 94.97H310.4C310.372 94.9733 310.345 94.9638 310.326 94.9443C310.306 94.9248 310.297 94.8974 310.3 94.87V91.64C310.297 91.6126 310.306 91.5852 310.326 91.5657C310.345 91.5462 310.372 91.5367 310.4 91.54H313C313.046 91.543 313.091 91.526 313.123 91.4935C313.156 91.4609 313.173 91.4159 313.17 91.37V90C313.173 89.9541 313.156 89.9091 313.123 89.8765C313.091 89.844 313.046 89.827 313 89.83H310.4C310.372 89.8333 310.345 89.8238 310.326 89.8043C310.306 89.7848 310.297 89.7574 310.3 89.73V86.62C310.297 86.5926 310.306 86.5652 310.326 86.5457C310.345 86.5262 310.372 86.5167 310.4 86.52H313.46C313.506 86.523 313.551 86.506 313.583 86.4735C313.616 86.4409 313.633 86.3959 313.63 86.35V85C313.63 84.9558 313.612 84.9135 313.579 84.8832C313.547 84.8529 313.504 84.8372 313.46 84.84Z" fill="#FFFFFF"/>
<path d="M319.19 89.81L318.48 89.53C318.089 89.4487 317.746 89.2132 317.53 88.8765C317.313 88.5398 317.242 88.1302 317.33 87.74C317.33 86.74 317.68 86.32 318.41 86.32C319.14 86.32 319.49 86.86 319.52 87.83C319.522 87.876 319.544 87.9189 319.581 87.9462C319.618 87.9735 319.666 87.9823 319.71 87.97L321.1 87.76C321.194 87.7451 321.262 87.6643 321.26 87.57C321.16 85.73 320.26 84.69 318.36 84.69C316.46 84.69 315.49 85.8 315.49 87.84C315.49 89.68 315.98 90.53 317.61 91.18L318.32 91.46C319.24 91.82 319.48 92.24 319.48 93.51C319.48 94.78 319.12 95.2 318.37 95.2C317.62 95.2 317.21 94.71 317.15 93.46C317.156 93.4105 317.136 93.3617 317.098 93.3296C317.06 93.2975 317.008 93.2865 316.96 93.3L315.5 93.54C315.456 93.5448 315.415 93.5681 315.389 93.6042C315.362 93.6403 315.352 93.686 315.36 93.73C315.41 95.8 316.36 96.82 318.36 96.82C320.6 96.82 321.36 95.6 321.36 93.27C321.35 91.25 320.74 90.42 319.19 89.81Z" fill="#FFFFFF"/>
<path d="M294.77 40.29C294.785 40.2462 294.781 40.1979 294.758 40.1576C294.735 40.1173 294.695 40.089 294.65 40.08L293.24 39.84C293.189 39.7966 293.115 39.7924 293.06 39.8295C293.004 39.8666 292.98 39.9362 293 40C292.95 41 292.6 41.44 291.92 41.44C291.485 41.4875 291.083 41.205 290.98 40.78C290.89 40.5 290.86 40.26 290.86 37.06C290.86 33.86 290.86 33.62 290.98 33.34C291.083 32.915 291.485 32.6325 291.92 32.68C292.6 32.68 292.92 33.11 293 34.12C292.995 34.1695 293.014 34.2183 293.053 34.2504C293.091 34.2825 293.142 34.2935 293.19 34.28L294.6 34.04C294.645 34.031 294.685 34.0027 294.708 33.9624C294.731 33.9221 294.735 33.8738 294.72 33.83C294.62 31.83 293.56 31 291.87 31C290.658 30.8832 289.534 31.6424 289.19 32.81C289.03 33.3 288.96 33.81 288.96 37.07C288.96 40.33 289.03 40.84 289.19 41.33C289.534 42.4976 290.658 43.2568 291.87 43.14C293.6 43.12 294.66 42.26 294.77 40.29Z" fill="#FFFFFF"/>
<path d="M281.16 89.81L280.45 89.53C280.058 89.4487 279.716 89.2132 279.499 88.8765C279.283 88.5398 279.211 88.1302 279.3 87.74C279.3 86.74 279.65 86.32 280.38 86.32C281.11 86.32 281.46 86.86 281.49 87.83C281.492 87.876 281.514 87.9189 281.551 87.9462C281.588 87.9735 281.636 87.9823 281.68 87.97L283.07 87.76C283.163 87.7451 283.231 87.6643 283.23 87.57C283.13 85.73 282.23 84.69 280.33 84.69C278.43 84.69 277.46 85.8 277.46 87.84C277.46 89.68 277.95 90.53 279.58 91.18L280.29 91.46C281.21 91.82 281.45 92.24 281.45 93.51C281.45 94.78 281.09 95.2 280.34 95.2C279.59 95.2 279.18 94.71 279.12 93.46C279.125 93.4105 279.106 93.3617 279.068 93.3296C279.03 93.2975 278.978 93.2865 278.93 93.3L277.47 93.54C277.426 93.5448 277.385 93.5681 277.358 93.6042C277.332 93.6403 277.321 93.686 277.33 93.73C277.38 95.8 278.33 96.82 280.33 96.82C282.57 96.82 283.33 95.6 283.33 93.27C283.31 91.25 282.7 90.42 281.16 89.81Z" fill="#FFFFFF"/>
<path d="M290.46 84.84H285.61C285.564 84.837 285.519 84.854 285.486 84.8865C285.454 84.9191 285.437 84.9641 285.44 85.01V96.48C285.437 96.5259 285.454 96.5709 285.486 96.6035C285.519 96.636 285.564 96.653 285.61 96.65H290.46C290.506 96.653 290.551 96.636 290.583 96.6035C290.616 96.5709 290.633 96.5259 290.63 96.48V95.14C290.633 95.0941 290.616 95.0491 290.583 95.0165C290.551 94.984 290.506 94.967 290.46 94.97H287.4C287.372 94.9733 287.345 94.9638 287.326 94.9443C287.306 94.9248 287.297 94.8974 287.3 94.87V91.64C287.297 91.6126 287.306 91.5852 287.326 91.5657C287.345 91.5462 287.372 91.5367 287.4 91.54H290C290.046 91.543 290.091 91.526 290.123 91.4935C290.156 91.4609 290.173 91.4159 290.17 91.37V90C290.173 89.9541 290.156 89.9091 290.123 89.8765C290.091 89.844 290.046 89.827 290 89.83H287.4C287.372 89.8333 287.345 89.8238 287.326 89.8043C287.306 89.7848 287.297 89.7574 287.3 89.73V86.62C287.297 86.5926 287.306 86.5652 287.326 86.5457C287.345 86.5262 287.372 86.5167 287.4 86.52H290.46C290.506 86.523 290.551 86.506 290.583 86.4735C290.616 86.4409 290.633 86.3959 290.63 86.35V85C290.63 84.9558 290.612 84.9135 290.579 84.8832C290.547 84.8529 290.504 84.8372 290.46 84.84Z" fill="#FFFFFF"/>
<path d="M241.1 86.37C241.78 86.37 242.1 86.8 242.18 87.81C242.174 87.8595 242.194 87.9083 242.232 87.9404C242.27 87.9725 242.322 87.9835 242.37 87.97L243.78 87.73C243.825 87.721 243.865 87.6927 243.888 87.6524C243.911 87.6121 243.915 87.5638 243.9 87.52C243.8 85.52 242.74 84.69 241.05 84.69C239.838 84.5732 238.714 85.3324 238.37 86.5C238.21 86.99 238.14 87.5 238.14 90.76C238.14 94.02 238.21 94.53 238.37 95.02C238.714 96.1876 239.838 96.9468 241.05 96.83C242.74 96.83 243.8 95.96 243.9 94C243.915 93.9562 243.911 93.9079 243.888 93.8676C243.865 93.8273 243.825 93.799 243.78 93.79L242.37 93.55C242.322 93.5365 242.27 93.5475 242.232 93.5796C242.194 93.6117 242.174 93.6605 242.18 93.71C242.13 94.71 241.78 95.15 241.1 95.15C240.665 95.1975 240.263 94.915 240.16 94.49C240.07 94.21 240.04 93.97 240.04 90.77C240.04 87.57 240.04 87.33 240.16 87.05C240.254 86.617 240.659 86.3242 241.1 86.37Z" fill="#FFFFFF"/>
<path d="M279.4 39.91V31.32C279.403 31.2741 279.386 31.2291 279.354 31.1965C279.321 31.164 279.276 31.147 279.23 31.15H277.72C277.674 31.147 277.629 31.164 277.597 31.1965C277.564 31.2291 277.547 31.2741 277.55 31.32V40.06C277.633 40.3995 277.55 40.758 277.328 41.0275C277.106 41.297 276.769 41.4461 276.42 41.43C276.162 41.437 275.911 41.3438 275.72 41.17C275.686 41.1345 275.64 41.1145 275.59 41.1145C275.541 41.1145 275.494 41.1345 275.46 41.17L274.46 42.11C274.426 42.1404 274.406 42.1841 274.406 42.23C274.406 42.2759 274.426 42.3196 274.46 42.35C274.961 42.8883 275.677 43.1745 276.41 43.13C278.17 43.12 279.4 42.17 279.4 39.91Z" fill="#FFFFFF"/>
<path fill-rule="evenodd" clip-rule="evenodd" d="M217.74 86.52C218.127 85.3269 219.291 84.5624 220.54 84.68C221.783 84.5684 222.937 85.3324 223.32 86.52C223.5 87.04 223.55 87.46 223.55 90.74C223.55 94.02 223.49 94.44 223.32 94.96C222.867 96.105 221.761 96.8573 220.53 96.8573C219.299 96.8573 218.192 96.105 217.74 94.96C217.56 94.44 217.51 94.02 217.51 90.74C217.51 87.46 217.57 87.04 217.74 86.52ZM220.54 95.1163C220.974 95.1163 221.367 94.8585 221.54 94.46L221.53 94.47C221.63 94.14 221.66 93.99 221.66 90.74C221.66 87.49 221.64 87.35 221.54 87.02C221.367 86.6215 220.974 86.3637 220.54 86.3637C220.105 86.3637 219.713 86.6215 219.54 87.02C219.42 87.35 219.42 87.49 219.42 90.74C219.42 93.99 219.44 94.13 219.54 94.46C219.713 94.8585 220.105 95.1163 220.54 95.1163Z" fill="#FFFFFF"/>
<path fill-rule="evenodd" clip-rule="evenodd" d="M190 33.06C190.297 34.3711 190.398 35.7192 190.3 37.06C190.399 38.4041 190.298 39.7556 190 41.07C189.637 42.319 188.421 43.1197 187.13 42.96H184.4C184.354 42.963 184.309 42.946 184.276 42.9135C184.244 42.8809 184.227 42.8359 184.23 42.79V31.34C184.227 31.2941 184.244 31.2491 184.276 31.2165C184.309 31.184 184.354 31.167 184.4 31.17H187.13C188.421 31.0103 189.637 31.811 190 33.06ZM186.95 41.28C187.518 41.34 188.047 40.9806 188.2 40.43C188.443 39.3243 188.531 38.19 188.46 37.06C188.547 35.9324 188.476 34.7981 188.25 33.69C188.097 33.1394 187.568 32.78 187 32.84H186.2C186.172 32.8367 186.145 32.8462 186.126 32.8657C186.106 32.8852 186.097 32.9126 186.1 32.94V41.18C186.097 41.2074 186.106 41.2348 186.126 41.2543C186.145 41.2738 186.172 41.2833 186.2 41.28H186.95Z" fill="#FFFFFF"/>
<path d="M197 58H195.71C195.664 57.997 195.619 58.014 195.586 58.0465C195.554 58.0791 195.537 58.1241 195.54 58.17V66.34H195.45L193.26 58.17C193.235 58.0514 193.118 57.9753 193 58H191.16C191.114 57.997 191.069 58.014 191.036 58.0465C191.004 58.0791 190.987 58.1241 190.99 58.17V69.64C190.987 69.6859 191.004 69.7309 191.036 69.7635C191.069 69.796 191.114 69.813 191.16 69.81H192.45C192.496 69.813 192.541 69.796 192.573 69.7635C192.606 69.7309 192.623 69.6859 192.62 69.64V61.47H192.72L195.01 69.64C195.034 69.7497 195.138 69.823 195.25 69.81H197C197.046 69.813 197.091 69.796 197.123 69.7635C197.156 69.7309 197.173 69.6859 197.17 69.64V58.17C197.173 58.1241 197.156 58.0791 197.123 58.0465C197.091 58.014 197.046 57.997 197 58Z" fill="#FFFFFF"/>
<path d="M207.41 84.84H201.73C201.684 84.837 201.639 84.854 201.606 84.8865C201.574 84.9191 201.557 84.9641 201.56 85.01V86.35C201.557 86.3959 201.574 86.4409 201.606 86.4735C201.639 86.506 201.684 86.523 201.73 86.52H203.54C203.567 86.5167 203.595 86.5262 203.614 86.5457C203.634 86.5652 203.643 86.5926 203.64 86.62V96.47C203.637 96.5159 203.654 96.5609 203.686 96.5935C203.719 96.626 203.764 96.643 203.81 96.64H205.32C205.366 96.643 205.411 96.626 205.443 96.5935C205.476 96.5609 205.493 96.5159 205.49 96.47V86.62C205.487 86.5926 205.496 86.5652 205.516 86.5457C205.535 86.5262 205.563 86.5167 205.59 86.52H207.4C207.446 86.523 207.491 86.506 207.523 86.4735C207.556 86.4409 207.573 86.3959 207.57 86.35V85C207.57 84.9116 207.498 84.84 207.41 84.84Z" fill="#FFFFFF"/>
<path fill-rule="evenodd" clip-rule="evenodd" d="M204.13 69.7644C204.094 69.7325 204.072 69.6878 204.07 69.64L203.63 67.26H201.28L200.81 69.64C200.807 69.6878 200.786 69.7325 200.75 69.7644C200.714 69.7963 200.668 69.8127 200.62 69.81H199.14C199.095 69.8157 199.051 69.7983 199.023 69.7637C198.994 69.7292 198.986 69.6825 199 69.64L201.54 58.17C201.554 58.0751 201.634 58.0037 201.73 58H203.19C203.287 57.9995 203.37 58.0729 203.38 58.17L205.88 69.64C205.894 69.6825 205.885 69.7292 205.857 69.7637C205.828 69.7983 205.784 69.8157 205.74 69.81H204.26C204.212 69.8127 204.165 69.7963 204.13 69.7644ZM202.42 61.29L201.55 65.69H203.3L202.47 61.29H202.42Z" fill="#FFFFFF"/>
<path fill-rule="evenodd" clip-rule="evenodd" d="M233.68 31.15H235.14C235.23 31.1591 235.301 31.2301 235.31 31.32L237.81 42.79C237.824 42.8324 237.816 42.8792 237.787 42.9137C237.759 42.9482 237.715 42.9657 237.67 42.96H236.19C236.142 42.9627 236.096 42.9463 236.06 42.9144C236.024 42.8825 236.003 42.8378 236 42.79L235.57 40.41H233.22L232.75 42.79C232.748 42.8378 232.726 42.8825 232.691 42.9144C232.655 42.9463 232.608 42.9627 232.56 42.96H231.08C231.036 42.9657 230.992 42.9482 230.963 42.9137C230.935 42.8792 230.926 42.8324 230.94 42.79L233.49 31.32C233.505 31.2251 233.584 31.1537 233.68 31.15ZM234.38 34.45L233.51 38.85H235.26L234.43 34.45H234.38Z" fill="#FFFFFF"/>
<path d="M184 69.64V58.17C184.003 58.1241 183.986 58.0791 183.954 58.0465C183.921 58.014 183.876 57.997 183.83 58H182.34C182.217 57.9743 182.095 58.0486 182.06 58.17L180.15 64.83H180.08L178.08 58.17C178.046 58.0486 177.924 57.9743 177.8 58H176.29C176.245 57.997 176.2 58.014 176.167 58.0465C176.134 58.0791 176.117 58.1241 176.12 58.17V69.64C176.117 69.6859 176.134 69.7309 176.167 69.7635C176.2 69.796 176.245 69.813 176.29 69.81H177.63C177.676 69.813 177.721 69.796 177.754 69.7635C177.786 69.7309 177.803 69.6859 177.8 69.64V62.17H178L179.53 67.54C179.555 67.6456 179.652 67.7177 179.76 67.71H180.52C180.629 67.7177 180.726 67.6456 180.75 67.54L182.28 62.17H182.38V69.64C182.377 69.6859 182.394 69.7309 182.427 69.7635C182.46 69.796 182.505 69.813 182.55 69.81H183.89C183.963 69.7867 184.009 69.7156 184 69.64Z" fill="#FFFFFF"/>
<rect x="186.59" y="57.99" width="1.86" height="11.82" rx="0.17" fill="#FFFFFF"/>
<path d="M180.59 84.84H174.9C174.854 84.837 174.809 84.854 174.776 84.8865C174.744 84.9191 174.727 84.9641 174.73 85.01V86.35C174.727 86.3959 174.744 86.4409 174.776 86.4735C174.809 86.506 174.854 86.523 174.9 86.52H176.71C176.737 86.5167 176.765 86.5262 176.784 86.5457C176.804 86.5652 176.813 86.5926 176.81 86.62V96.47C176.807 96.5159 176.824 96.5609 176.856 96.5935C176.889 96.626 176.934 96.643 176.98 96.64H178.49C178.536 96.643 178.581 96.626 178.613 96.5935C178.646 96.5609 178.663 96.5159 178.66 96.47V86.62C178.657 86.5926 178.666 86.5652 178.686 86.5457C178.705 86.5262 178.732 86.5167 178.76 86.52H180.57C180.616 86.523 180.661 86.506 180.693 86.4735C180.726 86.4409 180.743 86.3959 180.74 86.35V85C180.74 84.9154 180.674 84.8453 180.59 84.84Z" fill="#FFFFFF"/>
<path d="M187.65 84.84H182.8C182.754 84.837 182.709 84.854 182.677 84.8865C182.644 84.9191 182.627 84.9641 182.63 85.01V96.48C182.627 96.5259 182.644 96.5709 182.677 96.6035C182.709 96.636 182.754 96.653 182.8 96.65H187.65C187.696 96.653 187.741 96.636 187.774 96.6035C187.806 96.5709 187.823 96.5259 187.82 96.48V95.14C187.823 95.0941 187.806 95.0491 187.774 95.0165C187.741 94.984 187.696 94.967 187.65 94.97H184.59C184.563 94.9733 184.535 94.9638 184.516 94.9443C184.496 94.9248 184.487 94.8974 184.49 94.87V91.64C184.487 91.6126 184.496 91.5852 184.516 91.5657C184.535 91.5462 184.563 91.5367 184.59 91.54H187.23C187.276 91.543 187.321 91.526 187.354 91.4935C187.386 91.4609 187.403 91.4159 187.4 91.37V90C187.403 89.9541 187.386 89.9091 187.354 89.8765C187.321 89.844 187.276 89.827 187.23 89.83H184.59C184.563 89.8333 184.535 89.8238 184.516 89.8043C184.496 89.7848 184.487 89.7574 184.49 89.73V86.62C184.487 86.5926 184.496 86.5652 184.516 86.5457C184.535 86.5262 184.563 86.5167 184.59 86.52H187.65C187.696 86.523 187.741 86.506 187.774 86.4735C187.806 86.4409 187.823 86.3959 187.82 86.35V85C187.82 84.9558 187.802 84.9135 187.77 84.8832C187.738 84.8529 187.694 84.8372 187.65 84.84Z" fill="#FFFFFF"/>
<path fill-rule="evenodd" clip-rule="evenodd" d="M190.11 84.84H192.84C194.139 84.6833 195.359 85.499 195.71 86.76C196.007 88.0711 196.108 89.4192 196.01 90.76C196.108 92.1008 196.007 93.4489 195.71 94.76C195.347 96.009 194.131 96.8097 192.84 96.65H190.11C190.064 96.653 190.019 96.636 189.986 96.6035C189.954 96.5709 189.937 96.5259 189.94 96.48V85.01C189.937 84.9641 189.954 84.9191 189.986 84.8865C190.019 84.854 190.064 84.837 190.11 84.84ZM192.65 94.97C193.218 95.03 193.747 94.6706 193.9 94.12C194.126 93.0119 194.197 91.8776 194.11 90.75C194.197 89.6224 194.126 88.4881 193.9 87.38C193.747 86.8294 193.218 86.47 192.65 86.53H191.9C191.872 86.5267 191.845 86.5362 191.826 86.5557C191.806 86.5752 191.797 86.6026 191.8 86.63V94.87C191.797 94.8974 191.806 94.9248 191.826 94.9443C191.845 94.9638 191.872 94.9733 191.9 94.97H192.65Z" fill="#FFFFFF"/>
<path d="M232.71 58H231.42C231.374 57.997 231.329 58.014 231.297 58.0465C231.264 58.0791 231.247 58.1241 231.25 58.17V66.34H231.16L229 58.17C228.976 58.0603 228.872 57.987 228.76 58H226.92C226.874 57.997 226.829 58.014 226.797 58.0465C226.764 58.0791 226.747 58.1241 226.75 58.17V69.64C226.747 69.6859 226.764 69.7309 226.797 69.7635C226.829 69.796 226.874 69.813 226.92 69.81H228.21C228.256 69.813 228.301 69.796 228.334 69.7635C228.366 69.7309 228.383 69.6859 228.38 69.64V61.47H228.48L230.77 69.64C230.795 69.7497 230.899 69.823 231.01 69.81H232.73C232.776 69.813 232.821 69.796 232.854 69.7635C232.886 69.7309 232.903 69.6859 232.9 69.64V58.17C232.904 58.1201 232.885 58.0712 232.848 58.0378C232.81 58.0044 232.759 57.9905 232.71 58Z" fill="#FFFFFF"/>
<path fill-rule="evenodd" clip-rule="evenodd" d="M226 84.84H228.43C230.53 84.84 231.72 85.84 231.72 88.47C231.72 91.1 230.47 92.1 228.37 92.1H227.78C227.753 92.0967 227.726 92.1062 227.706 92.1257C227.687 92.1452 227.677 92.1726 227.68 92.2V96.48C227.683 96.5259 227.666 96.5709 227.634 96.6035C227.601 96.636 227.556 96.653 227.51 96.65H226C225.954 96.653 225.909 96.636 225.877 96.6035C225.844 96.5709 225.827 96.5259 225.83 96.48V85.01C225.827 84.9641 225.844 84.9191 225.877 84.8865C225.909 84.854 225.954 84.837 226 84.84ZM227.84 90.42H228.43C229.49 90.42 229.92 89.99 229.92 88.49C229.92 86.99 229.49 86.54 228.43 86.54H227.84C227.813 86.5367 227.786 86.5462 227.766 86.5657C227.747 86.5852 227.737 86.6126 227.74 86.64V90.32C227.737 90.3474 227.747 90.3748 227.766 90.3943C227.786 90.4138 227.813 90.4233 227.84 90.42Z" fill="#FFFFFF"/>
<path d="M210.21 69.64V59.78C210.207 59.7526 210.216 59.7252 210.236 59.7057C210.255 59.6862 210.282 59.6767 210.31 59.68H212.12C212.166 59.683 212.211 59.666 212.243 59.6335C212.276 59.6009 212.293 59.5559 212.29 59.51V58.17C212.293 58.1241 212.276 58.0791 212.243 58.0465C212.211 58.014 212.166 57.997 212.12 58H206.44C206.394 57.997 206.349 58.014 206.316 58.0465C206.284 58.0791 206.267 58.1241 206.27 58.17V59.51C206.267 59.5559 206.284 59.6009 206.316 59.6335C206.349 59.666 206.394 59.683 206.44 59.68H208.25C208.277 59.6767 208.305 59.6862 208.324 59.7057C208.344 59.7252 208.353 59.7526 208.35 59.78V69.63C208.347 69.6759 208.364 69.7209 208.396 69.7535C208.429 69.786 208.474 69.803 208.52 69.8H210C210.05 69.8166 210.105 69.8073 210.147 69.7753C210.189 69.7434 210.213 69.6927 210.21 69.64Z" fill="#FFFFFF"/>
<path d="M222.57 32.68C223.25 32.68 223.57 33.11 223.65 34.12C223.645 34.1695 223.665 34.2183 223.703 34.2504C223.741 34.2825 223.792 34.2935 223.84 34.28L225.25 34.04C225.296 34.031 225.335 34.0027 225.358 33.9624C225.381 33.9221 225.386 33.8738 225.37 33.83C225.27 31.83 224.21 31 222.52 31C221.309 30.8832 220.185 31.6424 219.84 32.81C219.68 33.3 219.61 33.81 219.61 37.07C219.61 40.33 219.68 40.84 219.84 41.33C220.185 42.4976 221.309 43.2568 222.52 43.14C224.21 43.14 225.27 42.27 225.37 40.31C225.386 40.2662 225.381 40.2179 225.358 40.1776C225.335 40.1373 225.296 40.109 225.25 40.1L223.84 39.86C223.792 39.8465 223.741 39.8575 223.703 39.8896C223.665 39.9217 223.645 39.9705 223.65 40.02C223.6 41.02 223.25 41.46 222.57 41.46C222.136 41.5075 221.733 41.225 221.63 40.8C221.54 40.52 221.51 40.28 221.51 37.08C221.51 33.88 221.51 33.64 221.63 33.36C221.725 32.927 222.13 32.6342 222.57 32.68Z" fill="#FFFFFF"/>
<rect x="233.96" y="84.84" width="1.86" height="11.82" rx="0.17" fill="#FFFFFF"/>
<path fill-rule="evenodd" clip-rule="evenodd" d="M215.41 88.37C215.542 89.5556 214.997 90.715 214 91.37L215.67 96.51C215.691 96.5435 215.693 96.5862 215.675 96.6215C215.656 96.6568 215.62 96.6792 215.58 96.68H213.96C213.876 96.6893 213.797 96.6395 213.77 96.56L212.33 91.85H211.44C211.412 91.8467 211.385 91.8562 211.365 91.8757C211.346 91.8952 211.336 91.9226 211.34 91.95V96.5C211.343 96.5459 211.326 96.5909 211.293 96.6235C211.261 96.656 211.216 96.673 211.17 96.67H209.66C209.614 96.673 209.569 96.656 209.536 96.6235C209.504 96.5909 209.487 96.5459 209.49 96.5V85.03C209.487 84.9841 209.504 84.9391 209.536 84.9065C209.569 84.874 209.614 84.857 209.66 84.86H212.04C214.14 84.86 215.41 85.78 215.41 88.37ZM211.44 90.17H212C213.06 90.17 213.49 89.74 213.49 88.35C213.49 86.96 213 86.53 212 86.53H211.44C211.412 86.5267 211.385 86.5362 211.365 86.5557C211.346 86.5752 211.336 86.6026 211.34 86.63V90.07C211.336 90.0974 211.346 90.1248 211.365 90.1443C211.385 90.1638 211.412 90.1733 211.44 90.17Z" fill="#FFFFFF"/>
<rect x="214.16" y="57.99" width="1.86" height="11.82" rx="0.17" fill="#FFFFFF"/>
<path fill-rule="evenodd" clip-rule="evenodd" d="M168.7 31.15H171.43C172.729 30.9933 173.948 31.809 174.3 33.07C174.597 34.3811 174.698 35.7292 174.6 37.07C174.698 38.4108 174.597 39.7589 174.3 41.07C173.936 42.319 172.72 43.1197 171.43 42.96H168.7C168.654 42.963 168.609 42.946 168.576 42.9135C168.544 42.8809 168.527 42.8359 168.53 42.79V31.32C168.527 31.2741 168.544 31.2291 168.576 31.1965C168.609 31.164 168.654 31.147 168.7 31.15ZM171.24 41.28C171.808 41.34 172.336 40.9806 172.49 40.43C172.716 39.3219 172.787 38.1876 172.7 37.06C172.787 35.9324 172.716 34.7981 172.49 33.69C172.336 33.1394 171.808 32.78 171.24 32.84H170.49C170.462 32.8367 170.435 32.8462 170.415 32.8657C170.396 32.8852 170.386 32.9126 170.39 32.94V41.18C170.386 41.2074 170.396 41.2348 170.415 41.2543C170.435 41.2738 170.462 41.2833 170.49 41.28H171.24Z" fill="#FFFFFF"/>
<path fill-rule="evenodd" clip-rule="evenodd" d="M218.57 59.68C218.958 58.4869 220.121 57.7224 221.37 57.84C222.613 57.7284 223.767 58.4924 224.15 59.68C224.33 60.2 224.38 60.62 224.38 63.9C224.38 67.18 224.32 67.6 224.15 68.12C223.697 69.265 222.591 70.0173 221.36 70.0173C220.129 70.0173 219.022 69.265 218.57 68.12C218.39 67.6 218.34 67.18 218.34 63.9C218.34 60.62 218.4 60.2 218.57 59.68ZM221.37 68.2763C221.804 68.2763 222.197 68.0185 222.37 67.62H222.36C222.47 67.29 222.49 67.15 222.49 63.9C222.49 60.65 222.47 60.51 222.37 60.18C222.197 59.7815 221.804 59.5237 221.37 59.5237C220.936 59.5237 220.543 59.7815 220.37 60.18C220.25 60.51 220.25 60.65 220.25 63.9C220.25 67.15 220.27 67.29 220.37 67.62C220.543 68.0185 220.936 68.2763 221.37 68.2763Z" fill="#FFFFFF"/>
<path fill-rule="evenodd" clip-rule="evenodd" d="M84.0804 118.19H67.6104V15.36H84.0804V118.19ZM72.0997 83.9994C72.0496 84.0495 72.0242 84.1193 72.0304 84.19V84.22V101.15C72.0242 101.221 72.0496 101.29 72.0997 101.341C72.1499 101.391 72.2197 101.416 72.2904 101.41H79.4104C79.481 101.416 79.5508 101.391 79.601 101.341C79.6511 101.29 79.6765 101.221 79.6704 101.15V99.15C79.6765 99.0793 79.6511 99.0095 79.601 98.9594C79.5508 98.9092 79.481 98.8838 79.4104 98.89H74.9204C74.8797 98.893 74.8398 98.8782 74.811 98.8494C74.7822 98.8206 74.7673 98.7806 74.7704 98.74V93.99C74.7673 93.9494 74.7822 93.9094 74.811 93.8806C74.8398 93.8518 74.8797 93.837 74.9204 93.84H78.8004C78.871 93.8462 78.9408 93.8208 78.991 93.7706C79.0411 93.7205 79.0665 93.6507 79.0604 93.58V91.58C79.0665 91.5093 79.0411 91.4395 78.991 91.3894C78.9408 91.3392 78.871 91.3138 78.8004 91.32H74.9204C74.8797 91.323 74.8398 91.3082 74.811 91.2794C74.7822 91.2506 74.7673 91.2106 74.7704 91.17V86.6C74.7673 86.5594 74.7822 86.5194 74.811 86.4906C74.8398 86.4618 74.8797 86.447 74.9204 86.45H79.4104C79.481 86.4562 79.5508 86.4308 79.601 86.3806C79.6511 86.3305 79.6765 86.2607 79.6704 86.19V84.19C79.6765 84.1193 79.6511 84.0495 79.601 83.9994C79.5508 83.9492 79.481 83.9238 79.4104 83.93H72.2904C72.2197 83.9238 72.1499 83.9492 72.0997 83.9994Z" fill="#FFFFFF"/>
<path d="M102.41 84H100.52C100.449 83.9938 100.379 84.0192 100.329 84.0694C100.279 84.1195 100.254 84.1893 100.26 84.26V96.26H100.13L96.9098 84.26C96.8792 84.0906 96.7202 83.9758 96.5498 84H93.8498C93.7791 83.9938 93.7093 84.0192 93.6592 84.0694C93.609 84.1195 93.5836 84.1893 93.5898 84.26V101.1C93.5836 101.171 93.609 101.24 93.6592 101.291C93.7093 101.341 93.7791 101.366 93.8498 101.36H95.7398C95.8105 101.366 95.8802 101.341 95.9304 101.291C95.9806 101.24 96.006 101.171 95.9998 101.1V89.1H96.1498L99.5198 101.1C99.5503 101.269 99.7094 101.384 99.8798 101.36H102.41C102.48 101.366 102.55 101.341 102.6 101.291C102.651 101.24 102.676 101.171 102.67 101.1V84.22C102.665 84.1563 102.634 84.0972 102.586 84.0559C102.537 84.0146 102.473 83.9945 102.41 84Z" fill="#FFFFFF"/>
<rect x="89.8896" y="47.17" width="16.47" height="25.17" fill="#FFFFFF"/>
<path d="M32.4995 91.26L31.4995 90.85C30.1195 90.31 29.8195 89.85 29.8195 88.22C29.8195 86.79 30.3295 86.13 31.3995 86.13C32.4695 86.13 32.9795 86.92 33.0295 88.35C33.0331 88.4169 33.0669 88.4785 33.1214 88.5174C33.1759 88.5564 33.2451 88.5684 33.3095 88.55L35.3095 88.24C35.4468 88.2196 35.5462 88.0986 35.5395 87.96C35.3895 85.25 34.1395 83.72 31.2795 83.72C28.4195 83.72 27.0695 85.35 27.0695 88.34C27.0695 91.05 27.7795 92.34 30.1795 93.24L31.1795 93.65C32.5295 94.19 32.8895 94.8 32.8895 96.65C32.8895 98.5 32.3495 99.13 31.2595 99.13C30.1695 99.13 29.5495 98.42 29.4695 96.58C29.4756 96.5079 29.4459 96.4374 29.39 96.3914C29.334 96.3455 29.2591 96.33 29.1895 96.35L27.0495 96.71C26.9855 96.7198 26.9281 96.755 26.8904 96.8078C26.8527 96.8605 26.838 96.9262 26.8495 96.99C26.9295 99.99 28.3795 101.53 31.1895 101.53C34.4795 101.53 35.6295 99.74 35.6295 96.32C35.6595 93.38 34.7695 92.16 32.4995 91.26Z" fill="#FFFFFF"/>
<path fill-rule="evenodd" clip-rule="evenodd" d="M61.7903 135H45.3203V8H61.7903V135ZM49.6197 84.0094C49.5695 84.0595 49.5441 84.1293 49.5503 84.2V84.22V101.03C49.5441 101.101 49.5695 101.17 49.6197 101.221C49.6699 101.271 49.7396 101.296 49.8103 101.29H52.0303C52.101 101.296 52.1708 101.271 52.2209 101.221C52.2711 101.17 52.2965 101.101 52.2903 101.03V94.75C52.2873 94.7094 52.3021 94.6694 52.3309 94.6406C52.3597 94.6118 52.3997 94.597 52.4403 94.6H53.3103C56.4003 94.6 58.2403 93.22 58.2403 89.27C58.2403 85.32 56.4003 83.94 53.3103 83.94H49.8103C49.7396 83.9338 49.6699 83.9592 49.6197 84.0094Z" fill="#FFFFFF"/>
<path d="M13.4405 84H6.32048C6.24981 83.9938 6.18003 84.0192 6.12987 84.0694C6.0797 84.1195 6.0543 84.1893 6.06048 84.26V101.1C6.0543 101.171 6.0797 101.24 6.12987 101.291C6.18003 101.341 6.24981 101.366 6.32048 101.36H13.4405C13.5112 101.366 13.5809 101.341 13.6311 101.291C13.6813 101.24 13.7067 101.171 13.7005 101.1V99.1C13.7067 99.0293 13.6813 98.9595 13.6311 98.9094C13.5809 98.8592 13.5112 98.8338 13.4405 98.84H9.00048C8.95985 98.843 8.91992 98.8282 8.8911 98.7994C8.86229 98.7706 8.84746 98.7306 8.85048 98.69V93.94C8.84746 93.8994 8.86229 93.8594 8.8911 93.8306C8.91992 93.8018 8.95985 93.787 9.00048 93.79H12.8805C12.9512 93.7962 13.0209 93.7708 13.0711 93.7206C13.1213 93.6705 13.1467 93.6007 13.1405 93.53V91.53C13.1467 91.4593 13.1213 91.3895 13.0711 91.3394C13.0209 91.2892 12.9512 91.2638 12.8805 91.27H9.00048C8.95985 91.273 8.91992 91.2582 8.8911 91.2294C8.86229 91.2006 8.84746 91.1606 8.85048 91.12V86.55C8.84746 86.5094 8.86229 86.4694 8.8911 86.4406C8.91992 86.4118 8.95985 86.397 9.00048 86.4H13.4905C13.5612 86.4062 13.6309 86.3808 13.6811 86.3306C13.7313 86.2805 13.7567 86.2107 13.7505 86.14V84.14C13.7281 84.0802 13.6827 84.0319 13.6246 84.0056C13.5664 83.9793 13.5001 83.9773 13.4405 84Z" fill="#FFFFFF"/>
<rect x="23.0303" y="0.76" width="16.47" height="61.38" fill="#FFFFFF"/>
<rect x="0.75" y="15.36" width="16.47" height="43.37" fill="#FFFFFF"/>
<path d="M52.4396 92.16H53.3096C54.8696 92.16 55.4996 91.5 55.4996 89.3C55.4996 87.1 54.8596 86.44 53.3096 86.44H52.4396C52.399 86.437 52.359 86.4518 52.3302 86.4806C52.3014 86.5094 52.2866 86.5494 52.2896 86.59V92C52.2833 92.0423 52.2967 92.0851 52.326 92.1162C52.3552 92.1474 52.397 92.1635 52.4396 92.16Z" fill="#FFFFFF"/>
</svg>
